<?xml version="1.0" encoding="utf-8"?>
<!-- Generator: Adobe Illustrator 23.0.1, SVG Export Plug-In . SVG Version: 6.00 Build 0)  -->
<svg version="1.1" id="Layer_1" xmlns="http://www.w3.org/2000/svg" xmlns:xlink="http://www.w3.org/1999/xlink" x="0px" y="0px"
	 viewBox="0 0 467.6 310.5" style="enable-background:new 0 0 467.6 310.5;" xml:space="preserve">
<style type="text/css">
	.st0{fill:#00F3FF;}
</style>
<g>
	<g>
		<path class="st0" d="M87,14c17,0,33.8,2,50,5.9c2.8,0.7,5.3,2,7.4,3.8c2.6,2.3,6,3.5,9.3,3.5c2.9,0,5.8-0.9,8.3-2.8
			c1.9-1.4,4.1-2.4,6.4-3.1c12.7-3.3,32.9-7.3,57.5-7.3c17.8,0,35.4,2.1,52.3,6.2c6.2,1.5,11,5.8,12.5,11.2
			c7.6,26.6,17.8,82,7.3,121c0,0.1,0,0.1-0.1,0.2l-1,4c-1.1,4.2-0.1,8.6,2.6,12c2.7,3.4,6.7,5.4,11,5.4h2c1.1,0,2.1-0.1,3.2-0.4
			c10.9-2.5,28.9-5.5,53-5.5c20.9,0,42.3,2.3,63.5,6.9c6.9,1.5,12.5,5.6,14.1,10.5c5.5,17,12.9,51.7,0.5,92.8
			c-1.5,5.1-7.1,9.3-14.2,10.9c-15.1,3.3-31.8,6.3-52.3,6.3c-16.9,0-34.1-2-52.6-6.2c-2-0.5-3.8-0.7-5.3-0.9c-0.9-0.1-2-0.3-2.5-0.4
			c-2.2-1.3-4.7-2-7.2-2c-2.6,0-5.1,0.7-7.4,2.1c-1.3,0.8-2.6,1.3-3.9,1.7c-12,3.2-34.9,6.5-59.2,6.5c-20.1,0-38.7-2.2-53.7-6.5
			c-5.1-1.4-9.1-5.5-10.6-10.8c-5.1-17.5-16.7-77.3-3.9-120c0.1-0.2,0.1-0.4,0.2-0.6l1-4c1.2-5-0.3-10.2-4.1-13.7
			c-2.6-2.4-6-3.7-9.5-3.7c-1.5,0-3,0.2-4.4,0.7l-2.4,0.8c-8.5,2-26.6,4.3-50.8,4.3c-26.2,0-51.3-2.7-70.5-7.6
			c-5.4-1.4-9.7-5.2-11.2-9.9c-6-18.8-14.1-56-1.3-94.6c1.6-4.8,5.8-8.5,11.2-9.9C44.1,17.8,63.5,14,87,14 M87,0
			C62.1,0,41.6,4,28.5,7.4c-10.1,2.6-18,9.8-21,19.1c-14,42.2-5.3,82.5,1.3,103.2c3,9.3,10.9,16.6,21.1,19.3c23,5.9,50,8,74,8
			c23.2,0,43.5-2,54.7-4.8l3-1l-1,4c-13.4,44.7-2.5,105.9,3.8,127.9c2.9,9.9,10.5,17.7,20.3,20.4c18.2,5.2,38.5,7,57.5,7
			c26.3,0,50.2-3.6,62.8-7c2.7-0.7,5.3-1.9,7.6-3.3c3.5,2.3,7.6,2,12,3c21.3,4.8,39.6,6.5,55.7,6.5c22.4,0,40.3-3.4,55.3-6.7
			c12.1-2.7,21.6-10.5,24.6-20.5c13.4-44.1,5.9-81.4-0.5-101.2c-3.2-9.8-12.5-17.4-24.4-19.9c-24.6-5.3-47-7.2-66.4-7.2
			c-23.6,0-42.8,2.8-56.1,5.9h-2l1-4c12.3-46.3-1.4-107.7-7.4-128.5c-2.9-10.2-11.6-18.2-22.7-20.9c-19.9-4.9-38.7-6.6-55.6-6.6
			c-26,0-47.4,4.2-61,7.7c-4.2,1.1-7.9,2.9-11.2,5.4c-3.7-3.3-8.2-5.7-13.3-6.9C121.3,1.7,103.2,0,87,0L87,0z"/>
	</g>
</g>
</svg>
