<?xml version="1.0" encoding="utf-8"?>
<!-- Generator: Adobe Illustrator 23.0.1, SVG Export Plug-In . SVG Version: 6.00 Build 0)  -->
<svg version="1.1" id="Layer_1" xmlns="http://www.w3.org/2000/svg" xmlns:xlink="http://www.w3.org/1999/xlink" x="0px" y="0px"
	 viewBox="0 0 474 311.2" style="enable-background:new 0 0 474 311.2;" xml:space="preserve">
<style type="text/css">
	.st0{fill:#00F3FF;}
</style>
<g>
	<g>
		<path class="st0" d="M83.3,14c23.9,0,43.5,3.8,55.8,6.9c3.6,0.9,6.8,2.9,9,5.5c2.6,3.1,6.4,5,10.5,5c0.1,0,0.2,0,0.3,0
			c4,0,7.8-1.7,10.4-4.6c2.6-2.9,6.4-5,10.7-5.9c17.8-3.9,36.3-5.9,55.1-5.9c26.1,0,47.5,3.8,60.9,7c1.8,0.4,3.5,1.1,5.1,1.9
			c2,1,4.2,1.5,6.4,1.5c2.4,0,4.9-0.6,7.1-1.9c2.1-1.2,4.3-2.1,6.8-2.6c18-3.9,36.8-5.9,55.8-5.9c26.4,0,48.3,3.8,61.9,7
			c6.5,1.5,11.6,5.5,13.4,10.3c14.1,38.2,5.2,75.1-1.4,93.7c-0.8,2.1-2.2,4.1-4.3,5.9c-5,4.3-6.4,11.4-3.3,17.3
			c0.9,1.7,1.6,3.6,2.1,5.5c12.6,49.5,4.5,97.2-1.5,121.2c-1.7,6.9-6,12.3-11.2,14c-14.3,4.7-29.7,7.1-45.6,7.1
			c-21.8,0-40.6-4.5-52.5-8.2c-5.4-1.7-9.9-7.5-11.4-14.8c-10.9-52.9-4.2-97.7,0.7-119.6c0.2-1,0.5-2,0.8-2.9c2.5-7-1-14.8-7.9-17.6
			c-0.6-0.2-1.2-0.5-1.9-0.9c-2-1.1-4.3-1.6-6.5-1.6c-2.6,0-5.2,0.7-7.4,2.1c-2,1.2-4.2,2.2-6.6,2.7c-16.6,3.9-34.5,5.8-53,5.8
			c-25.8,0-48-3.8-62.1-7c-4.5-1-8.3-3.2-10.9-6.2c-2.7-3.1-6.5-4.9-10.6-4.9c-0.1,0-0.2,0-0.3,0c-4.2,0.1-8.1,2.1-10.7,5.4
			c-2.2,2.8-5.5,4.9-9.3,5.8c-15.3,3.9-31.7,5.8-48.8,5.8c-23.7,0-44-3.7-56.9-6.9c-6-1.4-10.5-5.5-11.9-10.5
			c-11.3-41.4-4.5-76.4,0.5-93.6c1.4-4.9,6-8.9,11.8-10.3C48.9,16,66,14,83.3,14L83.3,14 M83.3,0c-16.4,0-34.7,1.7-54,6.3
			c-10.8,2.6-19.2,10.2-22,20C1.4,46-5.3,83.3,6.6,127.4c2.7,10,11.2,17.8,22.1,20.5c14,3.4,35.4,7.3,60.2,7.3
			c16.3,0,34.1-1.7,52.2-6.2c6.9-1.7,12.8-5.6,16.9-10.8c4.4,5.2,10.9,9,18.5,10.7c15.1,3.4,38.3,7.3,65.2,7.3
			c17.5,0,36.7-1.7,56.2-6.2c4-0.9,7.7-2.5,10.9-4.5c1,0.5,2,1,3.1,1.4c-0.5,1.5-0.9,2.9-1.3,4.5c-5.5,24.6-12.1,70.8-0.8,125.5
			c2.5,12.3,10.6,22.1,20.9,25.3c13.2,4.1,33.3,8.8,56.7,8.8c15.6,0,32.6-2.1,50-7.8c9.8-3.3,17.5-12.3,20.4-23.9
			c6.4-25.8,14.8-75.8,1.5-128.1c-0.8-3.1-1.9-6-3.3-8.6c3.9-3.3,6.8-7.4,8.4-11.9c7.3-20.7,16.9-61.1,1.3-103.2
			c-3.4-9.2-12.1-16.5-23.3-19.1C427.8,5,405,1,377.3,1c-17.9,0-37.8,1.7-58.8,6.3c-4,0.9-7.6,2.3-10.9,4.2c-2.6-1.3-5.3-2.4-8.3-3
			C285,5,262.4,1,235.1,1c-17.7,0-37.4,1.7-58.1,6.3c-7.4,1.6-13.7,5.3-18.1,10.2c-4-4.8-9.7-8.4-16.3-10.1C129.3,4,108.5,0,83.3,0
			L83.3,0z"/>
	</g>
</g>
</svg>
