<?xml version="1.0" encoding="utf-8"?>
<!-- Generator: Adobe Illustrator 23.0.1, SVG Export Plug-In . SVG Version: 6.00 Build 0)  -->
<svg version="1.1" id="Layer_1" xmlns="http://www.w3.org/2000/svg" xmlns:xlink="http://www.w3.org/1999/xlink" x="0px" y="0px"
	 viewBox="0 0 474 311.1" style="enable-background:new 0 0 474 311.1;" xml:space="preserve">
<style type="text/css">
	.st0{fill:#00F3FF;}
</style>
<g>
	<g>
		<path class="st0" d="M390.8,14c17.3,0,34.4,2,50.8,5.9c5.9,1.4,10.4,5.3,11.8,10.3c5,17.2,11.8,52.1,0.5,93.6
			c-1.4,5-5.9,9.1-11.9,10.5c-12.9,3.1-33.3,6.9-56.9,6.9c-17.1,0-33.5-2-48.8-5.8c-3.8-1-7.1-3-9.3-5.8c-2.6-3.3-6.5-5.3-10.7-5.4
			c-0.1,0-0.2,0-0.3,0c-4.1,0-8,1.8-10.6,4.9c-2.6,3-6.4,5.2-10.9,6.2c-14.1,3.2-36.3,7-62.1,7c-18.5,0-36.4-2-53-5.8
			c-2.4-0.6-4.6-1.5-6.6-2.7c-2.3-1.4-4.8-2.1-7.4-2.1c-2.2,0-4.4,0.5-6.5,1.6c-0.7,0.4-1.3,0.6-1.9,0.9
			c-6.9,2.8-10.4,10.6-7.9,17.6c0.3,1,0.6,1.9,0.8,2.9c5,22,11.6,66.7,0.7,119.6c-1.5,7.3-6,13.1-11.4,14.8
			c-11.9,3.7-30.7,8.2-52.5,8.2c-16,0-31.3-2.4-45.6-7.1c-5.2-1.7-9.5-7.1-11.2-14c-6-24-14.2-71.8-1.5-121.2
			c0.5-1.9,1.2-3.8,2.1-5.5c3.1-5.8,1.7-13-3.3-17.3c-2-1.7-3.5-3.7-4.3-5.9c-6.6-18.6-15.5-55.5-1.4-93.7
			c1.8-4.8,6.9-8.8,13.4-10.3c13.6-3.2,35.4-7,61.9-7c19,0,37.8,2,55.8,5.9c2.4,0.5,4.7,1.4,6.8,2.6c2.2,1.3,4.6,1.9,7.1,1.9
			c2.2,0,4.4-0.5,6.4-1.5c1.6-0.8,3.3-1.5,5.1-1.9c13.4-3.2,34.9-7,60.9-7c18.8,0,37.3,2,55.1,5.9c4.4,1,8.2,3.1,10.7,5.9
			c2.7,3,6.4,4.6,10.4,4.6c0.1,0,0.2,0,0.3,0c4.1-0.1,7.9-1.9,10.5-5c2.2-2.6,5.4-4.6,9-5.5C347.2,17.8,366.9,14,390.8,14 M390.8,0
			c-25.3,0-46.1,4-59.3,7.4c-6.6,1.7-12.2,5.3-16.3,10.1c-4.4-5-10.8-8.6-18.1-10.2C276.3,2.7,256.6,1,238.9,1
			c-27.3,0-49.9,4-64.2,7.4c-3,0.7-5.7,1.7-8.3,3c-3.2-1.9-6.9-3.4-10.9-4.2C134.6,2.7,114.7,1,96.8,1C69.1,1,46.2,5,31.7,8.4
			c-11.2,2.6-19.9,9.9-23.3,19.1c-15.5,42.2-6,82.5,1.3,103.2c1.6,4.6,4.5,8.6,8.4,11.9c-1.4,2.6-2.5,5.5-3.3,8.6
			c-13.4,52.3-4.9,102.3,1.5,128.1c2.9,11.6,10.5,20.7,20.4,23.9c17.4,5.8,34.4,7.8,50,7.8c23.4,0,43.5-4.7,56.7-8.8
			c10.4-3.3,18.4-13,20.9-25.3c11.3-54.7,4.8-101-0.8-125.5c-0.3-1.5-0.8-3-1.3-4.5c1.1-0.4,2.1-0.9,3.1-1.4c3.2,2,6.9,3.5,10.9,4.5
			c19.5,4.5,38.6,6.2,56.2,6.2c26.9,0,50.1-3.9,65.2-7.3c7.6-1.7,14-5.6,18.5-10.7c4.1,5.2,9.9,9,16.9,10.8
			c18.1,4.6,35.9,6.2,52.2,6.2c24.9,0,46.3-3.9,60.2-7.3c10.9-2.6,19.4-10.5,22.1-20.5c12-44.1,5.2-81.4-0.6-101.2
			c-2.8-9.8-11.3-17.4-22-20C425.5,1.7,407.2,0,390.8,0L390.8,0z"/>
	</g>
</g>
</svg>
