<?xml version="1.0" encoding="utf-8"?>
<!-- Generator: Adobe Illustrator 23.0.1, SVG Export Plug-In . SVG Version: 6.00 Build 0)  -->
<svg version="1.1" id="Layer_1" xmlns="http://www.w3.org/2000/svg" xmlns:xlink="http://www.w3.org/1999/xlink" x="0px" y="0px"
	 viewBox="0 0 467.6 310.5" style="enable-background:new 0 0 467.6 310.5;" xml:space="preserve">
<style type="text/css">
	.st0{fill:#fdff00;}
</style>
<g>
	<path class="st0" d="M380.6,14c23.5,0,42.8,3.8,54.9,6.9c5.5,1.4,9.7,5.1,11.3,9.9c12.8,38.5,4.7,75.8-1.3,94.6
		c-1.5,4.8-5.8,8.5-11.2,9.9c-19.3,4.9-44.3,7.6-70.5,7.6c-24.2,0-42.4-2.3-50.8-4.3l-2.4-0.8c-1.4-0.5-2.9-0.7-4.4-0.7
		c-3.5,0-6.9,1.3-9.5,3.7c-3.8,3.5-5.3,8.7-4.1,13.7l1,4c0.1,0.2,0.1,0.4,0.2,0.6c12.8,42.8,1.2,102.5-3.9,120
		c-1.6,5.3-5.5,9.4-10.6,10.8c-15,4.3-33.6,6.5-53.7,6.5c-24.3,0-47.2-3.3-59.2-6.5c-1.4-0.4-2.7-1-3.9-1.7
		c-2.3-1.4-4.8-2.1-7.4-2.1c-2.5,0-5,0.7-7.2,2c-0.5,0.1-1.7,0.3-2.5,0.4c-1.5,0.2-3.3,0.5-5.3,0.9c-18.5,4.2-35.7,6.2-52.6,6.2
		c-20.5,0-37.2-3-52.3-6.3c-7.1-1.5-12.6-5.8-14.2-10.9c-12.4-41.1-5-75.8,0.5-92.8c1.6-4.9,7.1-9.1,14.1-10.5
		c21.3-4.6,42.6-6.9,63.5-6.9c24,0,42.1,3,53,5.5c1,0.2,2.1,0.4,3.2,0.4h2c4.3,0,8.4-2,11-5.4c2.7-3.4,3.6-7.8,2.5-12l-1-4
		c0-0.1,0-0.1,0-0.2c-10.4-39.1-0.3-94.5,7.3-121c1.5-5.4,6.3-9.7,12.5-11.2c16.9-4.1,34.5-6.2,52.3-6.2c24.6,0,44.8,4,57.5,7.3
		c2.3,0.6,4.5,1.6,6.4,3.1c2.5,1.8,5.4,2.8,8.3,2.8c3.3,0,6.6-1.2,9.3-3.5c2.1-1.8,4.6-3.1,7.4-3.8C346.7,16,363.6,14,380.6,14
		L380.6,14 M380.6,0c-16.2,0-34.3,1.7-53.3,6.3c-5.1,1.2-9.7,3.7-13.3,6.9c-3.3-2.4-7.1-4.3-11.2-5.4c-13.6-3.6-35.1-7.7-61-7.7
		c-16.9,0-35.8,1.8-55.6,6.6c-11.1,2.7-19.7,10.7-22.7,20.9c-6,20.8-19.7,82.3-7.4,128.5l1,4h-2c-13.3-3.1-32.5-5.9-56.1-5.9
		c-19.5,0-41.9,1.9-66.5,7.2c-12,2.6-21.3,10.2-24.5,19.9c-6.4,19.8-13.9,57-0.5,101.2c3,10,12.4,17.8,24.6,20.5
		c15,3.3,32.9,6.7,55.3,6.7c16.1,0,34.4-1.8,55.7-6.5c4.4-1,8.5-0.7,12-3c2.3,1.5,4.9,2.6,7.6,3.3c12.7,3.4,36.5,7,62.8,7
		c19,0,39.3-1.9,57.5-7c9.8-2.8,17.4-10.5,20.3-20.4c6.4-22,17.2-83.2,3.8-127.9l-1-4l3,1c11.2,2.8,31.5,4.8,54.7,4.8
		c24,0,51-2.2,74-8c10.2-2.6,18.1-9.9,21.1-19.3c6.6-20.8,15.3-61.1,1.3-103.2c-3.1-9.2-10.9-16.4-21-19.1C426,4,405.5,0,380.6,0
		L380.6,0z"/>
</g>
</svg>
