<?xml version="1.0" encoding="utf-8"?>
<!-- Generator: Adobe Illustrator 23.0.1, SVG Export Plug-In . SVG Version: 6.00 Build 0)  -->
<svg version="1.1" id="Layer_1" xmlns="http://www.w3.org/2000/svg" xmlns:xlink="http://www.w3.org/1999/xlink" x="0px" y="0px"
	 viewBox="0 0 155.72 619.14" style="enable-background:new 0 0 155.72 619.14;" xml:space="preserve">
<style type="text/css">
	.st0{fill:#00F3FF;}
</style>
<g>
	<g>
		<path class="st0" d="M79.65,14c15.42,0,30.67,2.27,45.31,6.75c4.99,1.53,9,6.43,10.48,12.78c4.7,20.27,11.04,61.56,0.67,110.37
			c-1,4.69-3.47,8.77-6.79,11.19c-3.59,2.62-5.72,6.78-5.75,11.22s2.05,8.63,5.6,11.29c3.05,2.29,5.28,5.84,6.28,9.99
			c4.68,19.51,10.98,59.26,0.64,106.26c-0.86,3.92-2.86,7.37-5.62,9.72c-3.04,2.58-4.83,6.33-4.93,10.32
			c-0.1,3.98,1.5,7.82,4.41,10.55c2.59,2.43,4.5,5.9,5.4,9.77c4.7,20.32,11.04,61.7,0.68,110.63c-0.88,4.14-2.87,7.8-5.62,10.29
			c-2.93,2.66-4.6,6.44-4.6,10.4c0.01,3.96,1.7,7.73,4.64,10.38c2.4,2.16,4.1,5.04,4.92,8.35c4.65,18.75,10.92,56.94,0.6,102.11
			c-1.31,5.73-5.22,10.17-10.2,11.59c-11.46,3.27-29.52,7.17-50.5,7.17c-15.27,0-29.96-2.08-43.66-6.17
			c-4.66-1.39-8.48-5.6-9.95-10.98c-5.62-20.5-13.28-61.17-1.35-103.29c0.96-3.38,2.86-6.37,5.36-8.41c3.05-2.5,4.91-6.16,5.12-10.1
			s-1.26-7.78-4.03-10.58c-2.31-2.33-4.01-5.46-4.93-9.05c-5.69-22.22-13.43-66.33-1.42-112.04c1.04-3.96,3.09-7.41,5.78-9.72
			c3-2.58,4.77-6.3,4.87-10.25s-1.47-7.76-4.33-10.49c-2.31-2.2-4-5.15-4.9-8.54c-5.66-21.34-13.36-63.68-1.38-107.55
			c1.15-4.2,3.51-7.71,6.66-9.86c3.64-2.49,5.9-6.56,6.08-10.97s-1.73-8.65-5.15-11.44c-2.88-2.35-5.06-5.93-6.13-10.08
			C16.22,123.44,8.48,79.44,20.5,33.84c1.58-6,5.44-10.65,10.07-12.16C41.37,18.18,58.66,14,79.65,14 M79.65,0
			C56.92,0,38.17,4.5,26.23,8.37c-9.27,3.01-16.49,11.3-19.29,21.9c-12.78,48.5-4.74,94.92,1.39,118.81
			c1.84,7.16,5.71,13.28,10.85,17.47c-5.82,3.98-10.21,10.25-12.25,17.72c-12.79,46.87-4.76,91.74,1.36,114.82
			c1.58,5.95,4.66,11.16,8.77,15.08c-4.8,4.12-8.41,9.97-10.2,16.78c-12.78,48.6-4.73,95.13,1.39,119.07
			c1.55,6.06,4.55,11.39,8.55,15.43c-4.68,3.83-8.2,9.2-9.97,15.43c-12.81,45.24-4.79,88.53,1.32,110.81
			c2.75,10.02,10.07,17.88,19.44,20.69c16.57,4.95,32.81,6.76,47.67,6.76c22.43,0,41.73-4.11,54.34-7.7
			c9.9-2.82,17.57-11.26,20.01-21.94c10.81-47.34,4.61-87.33-0.66-108.6c-1.52-6.12-4.77-11.45-9.15-15.39
			c4.85-4.4,8.4-10.61,9.91-17.76c10.78-50.86,4.56-93.84-0.73-116.69c-1.56-6.72-4.92-12.56-9.45-16.82
			c5.01-4.26,8.67-10.34,10.22-17.38c10.79-49.05,4.59-90.49-0.7-112.53c-1.78-7.43-5.93-13.75-11.5-17.93
			c6.04-4.4,10.49-11.37,12.24-19.59c10.78-50.75,4.56-93.64-0.73-116.44c-2.61-11.23-10.25-20.02-20.02-23.01
			C111.41,1.97,94.66,0,79.65,0L79.65,0z"/>
	</g>
</g>
</svg>
