<?xml version="1.0" encoding="utf-8"?>
<!-- Generator: Adobe Illustrator 23.0.1, SVG Export Plug-In . SVG Version: 6.00 Build 0)  -->
<svg version="1.1" id="Layer_1" xmlns="http://www.w3.org/2000/svg" xmlns:xlink="http://www.w3.org/1999/xlink" x="0px" y="0px"
	 viewBox="0 0 468.6 310.4" style="enable-background:new 0 0 468.6 310.4;" xml:space="preserve">
<style type="text/css">
	.st0{fill:#00F3FF;}
</style>
<g>
	<g>
		<path class="st0" d="M235.3,14c15.2,0,30.3,2.8,44.7,8.3c4.2,1.6,9.3,7.8,11.3,17.9c4.1,21.5,10,65.5,3.8,118.3
			c-0.5,4.4,1.1,8.7,4.3,11.8c2.6,2.5,6.1,3.9,9.7,3.9c0.8,0,1.6-0.1,2.3-0.2c18.6-3.1,37.6-4.7,56.7-4.7c21.3,0,42.3,2,62.4,5.9
			c8,1.6,14.5,5.9,16.2,10.8c6,16.9,14,51.3,0.4,92.1c-1.7,5.1-8.3,9.6-16.4,11.2c-16.1,3.2-41.5,7.1-71,7.1c-21,0-41.3-2-60.1-5.8
			c-1.9-0.4-3.7-0.9-5.5-1.7c-1.7-0.7-3.5-1-5.3-1c-1.8,0-3.6,0.3-5.2,1c-0.6,0.2-1.1,0.4-1.6,0.5c-11.5,3.1-29.7,6.7-50.9,6.7
			c-15.3,0-30.1-1.9-43.8-5.8c-1.5-0.4-2.9-1.1-4.2-2c-2.4-1.7-5.2-2.5-8-2.5c-1.9,0-3.9,0.4-5.7,1.2c-1.8,0.8-3.8,1.4-5.8,1.8
			c-15.4,3.2-39.7,7-67.8,7c-20.1,0-39.5-2-57.6-5.8c-7.2-1.5-13-5.6-14.8-10.5c-7-18.5-16.4-55.2-1.5-93.2c1.9-4.9,7.6-9,14.9-10.6
			c14.7-3.3,38.1-7.1,66.6-7.1c18.5,0,36.8,1.7,54.4,4.9c0.8,0.2,1.7,0.2,2.5,0.2c3.6,0,7.1-1.4,9.7-3.9c3.3-3.1,4.8-7.6,4.1-12.1
			c-4.2-28.8-7.2-72.7,2.4-117.9c1.8-8.4,6-15,10.7-16.9C197.9,19,214.8,14,235.3,14 M235.3,0c-22.6,0-41.2,5.5-53.1,10.2
			c-9.3,3.7-16.5,13.9-19.2,27c-9.8,46.4-7.1,91.3-2.5,122.8c-20.3-3.7-39.5-5.1-56.9-5.1c-29.6,0-54.1,4-69.6,7.5
			c-11.9,2.6-21.3,9.9-24.9,19.1c-16.6,42.2-6.4,82.5,1.4,103.2c3.5,9.3,12.9,16.6,25,19.2c21,4.5,41.6,6.2,60.5,6.2
			c29.2,0,54.3-3.9,70.7-7.3c3-0.6,5.9-1.6,8.6-2.8c2.5,1.8,5.4,3.2,8.5,4c16.5,4.6,32.7,6.3,47.6,6.3c22.5,0,41.8-3.8,54.5-7.2
			c1.1-0.3,2.2-0.7,3.3-1.1c2.5,1,5.1,1.8,7.9,2.4c21.8,4.5,43.3,6.1,62.9,6.1c30.5,0,56.7-3.9,73.8-7.4
			c13.3-2.7,23.6-10.5,26.9-20.5c14.7-44.1,6.5-81.4-0.5-101.2c-3.4-9.8-13.7-17.4-26.7-19.9c-23.2-4.5-45.3-6.2-65.1-6.2
			c-23.3,0-43.5,2.3-59,4.9c6.3-53.3,0.8-97.6-4-122.6c-2.6-13.9-10.3-24.7-20.1-28.4C267.3,2.4,250.4,0,235.3,0L235.3,0z"/>
	</g>
</g>
</svg>
