<?xml version="1.0" encoding="utf-8"?>
<!-- Generator: Adobe Illustrator 23.0.1, SVG Export Plug-In . SVG Version: 6.00 Build 0)  -->
<svg version="1.1" id="Layer_1" xmlns="http://www.w3.org/2000/svg" xmlns:xlink="http://www.w3.org/1999/xlink" x="0px" y="0px"
	 viewBox="0 0 312.4 309.3" style="enable-background:new 0 0 312.4 309.3;" xml:space="preserve">
<style type="text/css">
	.st0{fill:#00F3FF;}
</style>
<g>
	<g>
		<path class="st0" d="M85.9,14L85.9,14c16.8,0,33.4,2.2,49.4,6.6c3.5,1,6.7,3.2,8.9,6.3c2.6,3.6,6.7,5.7,11.1,5.8
			c0.1,0,0.2,0,0.3,0c4.3,0,8.3-2,11-5.4c2.2-2.8,5.1-4.8,8.3-5.7c12-3.5,31.1-7.6,54.3-7.6c17,0,33.7,2.2,49.8,6.6
			c5.8,1.6,10.3,6.3,11.9,12.3c5.1,19.5,11.8,59.3,0.6,106.4c-0.6,2.7-1.9,5.2-3.6,7.3c-4.4,5.3-4.3,12.9,0.2,18.1
			c1.7,1.9,2.8,4.1,3.5,6.4c5.3,19.1,12.3,58,0.6,104.1c-1.5,6-6.4,10.8-12.7,12.4c-13.3,3.4-34.2,7.5-58.5,7.5
			c-17.6,0-34.6-2.2-50.4-6.4c-2.3-0.6-4.4-1.6-6.2-3.1c-2.5-1.9-5.5-2.8-8.5-2.8c-2.7,0-5.4,0.8-7.7,2.3c-1.6,1.1-3.4,1.9-5.3,2.3
			c-13.1,3.4-33.7,7.5-57.6,7.5c-17.4,0-34.1-2.2-49.7-6.4c-5.8-1.6-10.4-6-12.1-11.7c-6.3-20.9-14.8-62.3-1.4-105.3
			c0.7-2.2,1.8-4.3,3.4-6.1c4.4-5.1,4.5-12.7,0.3-17.9c-1.5-1.9-2.7-4.1-3.4-6.5C16.2,119.9,8,77.4,20.9,33.4
			c1.7-5.8,5.9-10.3,11.3-11.8C44,18.2,62.9,14,85.9,14 M85.9,0C61.4,0,41.1,4.4,28.2,8.2c-10,2.9-17.8,11-20.8,21.3
			c-13.8,47.2-5.2,92.3,1.4,115.6c1.2,4.3,3.3,8.2,5.9,11.5c-2.7,3.2-4.8,6.9-6.1,11.1C-5.8,214,3.1,258.3,10,281.1
			c3.1,10.3,11.3,18.3,21.8,21.2c18.5,5,36.7,6.9,53.3,6.9c25.3,0,47-4.2,61.2-7.9c3.4-0.9,6.6-2.3,9.4-4.2c3.2,2.5,7,4.3,11.1,5.4
			c18.8,5,37.2,6.9,54,6.9c25.6,0,47.6-4.2,62-7.9c11.3-2.9,20-11.5,22.8-22.5c12.3-48.5,5.3-89.5-0.7-111.3
			c-1.2-4.4-3.4-8.5-6.4-11.9c3.1-3.7,5.3-8.1,6.5-13c11.8-49.3,5.1-91-0.7-113.2c-2.8-10.9-11.1-19.5-21.7-22.3
			c-19.1-5.2-37.2-7.1-53.5-7.1c-24.8,0-45.2,4.4-58.2,8.2c-6.2,1.8-11.5,5.5-15.4,10.5c-4-5.6-9.8-9.8-16.6-11.6
			C120.1,1.9,102.1,0,85.9,0L85.9,0z"/>
	</g>
</g>
</svg>
