<?xml version="1.0" encoding="utf-8"?>
<!-- Generator: Adobe Illustrator 23.0.1, SVG Export Plug-In . SVG Version: 6.00 Build 0)  -->
<svg version="1.1" id="Layer_1" xmlns="http://www.w3.org/2000/svg" xmlns:xlink="http://www.w3.org/1999/xlink" x="0px" y="0px"
	 viewBox="0 0 155.57 155.14" style="enable-background:new 0 0 155.57 155.14;" xml:space="preserve">
<style type="text/css">
	.st0{fill:#99CCFF;}
</style>
<g>
	<path class="st0" d="M79.82,18C95,18,110,19.93,124.38,23.75c3.51,0.93,6.27,3.69,7.2,7.19c4.5,16.93,10.55,51.42,0.52,92.25
		c-0.88,3.59-3.63,6.41-7.18,7.35c-11.31,3.01-29.13,6.6-49.83,6.6c-14.96,0-29.34-1.89-42.73-5.61c-3.36-0.93-5.97-3.55-6.98-6.99
		c-5.43-18.47-12.82-55.1-1.31-92.91c1.04-3.42,3.66-6.03,6.99-6.98C41.8,21.62,58.97,18,79.82,18 M79.82,0
		C57,0,38.15,3.94,26.17,7.33C16.9,9.95,9.67,17.16,6.86,26.38c-12.83,42.15-4.84,82.48,1.26,103.23
		c2.74,9.34,10.06,16.65,19.43,19.26c16.52,4.59,32.72,6.27,47.55,6.27c22.48,0,41.83-3.84,54.46-7.21
		c9.9-2.64,17.58-10.5,20.02-20.45c10.84-44.11,4.67-81.36-0.6-101.17c-2.59-9.76-10.23-17.38-19.99-19.97
		C111.43,1.69,94.77,0,79.82,0L79.82,0z"/>
</g>
</svg>
